<?xml version="1.0" encoding="utf-8"?>
<!-- Generator: Adobe Illustrator 24.0.1, SVG Export Plug-In . SVG Version: 6.00 Build 0)  -->
<svg version="1.1" id="レイヤー_1" xmlns="http://www.w3.org/2000/svg" xmlns:xlink="http://www.w3.org/1999/xlink" x="0px"
	 y="0px" viewBox="0 0 62.1 41" style="enable-background:new 0 0 62.1 41;" xml:space="preserve">
<style type="text/css">
	.st0{fill:#FFFFFF;}
</style>
<title>アセット 18</title>
<g id="レイヤー_2_1_">
	<g id="contents">
		<path class="st0" d="M5.4,40.6c-0.4,0.1-0.8,0.2-1.3,0.2c-0.8,0-1.5-0.2-2.2-0.5c-0.6-0.3-1.1-0.8-1.4-1.5c-0.3-0.6-0.5-1.3-0.5-2
			c0-0.7,0.2-1.5,0.5-2.1c0.3-0.6,0.8-1.1,1.4-1.5c0.6-0.4,1.3-0.5,2-0.5c0.4,0,0.8,0.1,1.2,0.2c0.4,0.1,0.7,0.3,1,0.5l-0.4,1
			c-0.5-0.4-1.1-0.6-1.7-0.6c-0.5,0-1,0.1-1.4,0.4c-0.4,0.3-0.8,0.7-1,1.1c-0.3,0.5-0.4,1-0.4,1.5c0,0.5,0.1,1.1,0.4,1.5
			c0.2,0.4,0.6,0.8,1,1.1C3,39.6,3.5,39.7,4,39.7c0.7,0,1.3-0.2,1.8-0.6l0.5,1C6,40.3,5.7,40.5,5.4,40.6z"/>
		<path class="st0" d="M9.8,34.7c0.4-0.6,0.9-1.1,1.5-1.5c1.3-0.7,2.8-0.7,4.1,0c0.6,0.4,1.1,0.9,1.5,1.5c1.1,1.9,0.5,4.4-1.4,5.5
			c0,0-0.1,0-0.1,0.1c-1.3,0.7-2.8,0.7-4.1,0c-0.6-0.3-1.1-0.9-1.5-1.5C9.1,37.5,9.1,36,9.8,34.7L9.8,34.7z M10.8,38.2
			c0.3,0.5,0.6,0.8,1.1,1.1c0.5,0.3,1,0.4,1.5,0.4c1.1,0,2-0.6,2.6-1.5c0.3-0.5,0.4-1,0.4-1.5c0-0.5-0.1-1.1-0.4-1.5
			c-0.3-0.5-0.6-0.8-1.1-1.1c-0.5-0.3-1-0.4-1.5-0.4c-0.5,0-1,0.1-1.5,0.4c-0.5,0.3-0.8,0.7-1.1,1.1c-0.3,0.5-0.4,1-0.4,1.5
			C10.4,37.3,10.5,37.8,10.8,38.2z"/>
		<path class="st0" d="M27.8,32.7V41l0,0l-5.9-6v5.7h-1v-8.2h0l5.8,6v-5.8H27.8z"/>
		<path class="st0" d="M36.4,32.7v1h-2.1v7h-1.1v-6.9h-2.1v-1L36.4,32.7z"/>
		<path class="st0" d="M43.3,38.6h-3.1l-0.8,2.1h-1l3.5-8.3H42l3.5,8.3h-1.3L43.3,38.6z M43,37.7l-1.1-2.9l-1.2,2.9H43z"/>
		<path class="st0" d="M53,40.6c-0.4,0.1-0.8,0.2-1.3,0.2c-0.8,0-1.5-0.2-2.2-0.5c-0.6-0.3-1.1-0.8-1.4-1.5c-0.3-0.6-0.5-1.3-0.5-2
			c0-0.7,0.2-1.5,0.5-2.1c0.7-1.3,2-2,3.4-2c0.4,0,0.8,0.1,1.3,0.2c0.4,0.1,0.7,0.3,1,0.5l-0.4,1c-0.5-0.4-1.2-0.6-1.8-0.6
			c-0.5,0-1,0.1-1.4,0.4c-0.4,0.3-0.8,0.7-1,1.1c-0.3,0.5-0.4,1-0.4,1.5c0,0.5,0.1,1.1,0.3,1.5c0.2,0.4,0.6,0.8,1,1.1
			c0.5,0.3,1,0.4,1.5,0.4c0.7,0,1.3-0.2,1.9-0.6l0.5,1C53.6,40.3,53.3,40.5,53,40.6z"/>
		<path class="st0" d="M62.1,32.7v1h-2.1v7h-1.1v-6.9h-2.1v-1L62.1,32.7z"/>
		<polygon class="st0" points="46.4,20.8 15.6,20.8 15.6,0 46.4,0 46.4,4.7 31,10.9 18.7,5.9 18.9,5.2 31,10.1 45.6,4.2 45.6,0.8 
			16.4,0.8 16.4,20 45.6,20 45.6,7.4 46.4,7.4 		"/>
	</g>
</g>
</svg>
