<svg xmlns="http://www.w3.org/2000/svg" viewBox="0 0 48.28 74.4"><defs><style>.cls-1{fill:#dc107d;}</style></defs><title>アセット 19</title><g id="レイヤー_2" data-name="レイヤー 2"><g id="contents"><path class="cls-1" d="M0,12.49a20,20,0,0,0,0-4.6l.84-.06c.33,0,.35.15.06.34a25.2,25.2,0,0,1-.12,4.2.38.38,0,0,0,.06.29.4.4,0,0,0,.34.15,25.65,25.65,0,0,1,4.51,0l0,.94a29.66,29.66,0,0,0-4.46-.18,1.28,1.28,0,0,1-1-.26A1,1,0,0,1,0,12.49Zm18.66-6.1a1.63,1.63,0,0,0,.14-1.26A1.73,1.73,0,0,0,18,4a2.13,2.13,0,0,0-1.59-.1,3.21,3.21,0,0,0-1.71.93,10.17,10.17,0,0,0-1.18,1.93l-.75-.38A47,47,0,0,0,15.62,1.1c-.76.3-1.53.58-2.3.85l-.46-.76a25,25,0,0,0,3.07-1L16.22,0l.49.29c.33.18.31.35-.06.52-.51,1-1,2-1.54,2.93a5.67,5.67,0,0,1,1.21-.49,2.81,2.81,0,0,1,2.16.14,2.31,2.31,0,0,1,1.06,1.48,2.21,2.21,0,0,1-.17,1.76,3,3,0,0,1-2,1.41,2.61,2.61,0,0,1-2-.11,1.6,1.6,0,0,1-.75-1,1,1,0,0,1,.14-.83,1.15,1.15,0,0,1,.73-.57,1.55,1.55,0,0,1,1.18.16A2.93,2.93,0,0,1,17.82,7.1,1.7,1.7,0,0,0,18.67,6.39Zm-2.29-.15a.72.72,0,0,0-.56-.12.56.56,0,0,0-.39.25.54.54,0,0,0-.08.44.86.86,0,0,0,.44.53,1.31,1.31,0,0,0,1,.13l.32-.08A2.22,2.22,0,0,0,16.38,6.24Zm15.25,2L31,7.67a5.16,5.16,0,0,0,2.1-2.21A12.51,12.51,0,0,0,30.7,4.18a12.47,12.47,0,0,1-1.88,2.09,1.41,1.41,0,0,1-1.11.18A1,1,0,0,1,27.07,6a1.4,1.4,0,0,1-.09-1,2.2,2.2,0,0,1,1.08-1.29,2.93,2.93,0,0,1,2.31-.27l1.3-1.88c-.71,0-1.42,0-2.12,0L29.4.67a21.76,21.76,0,0,0,2.36.16l.47-.07.5.62c.2.2.16.3-.12.31a19.76,19.76,0,0,0-1.53,1.9,13.15,13.15,0,0,1,2.29,1.18,20,20,0,0,0,.56-2.11l.65.31c.25.11.25.22,0,.31-.2.78-.38,1.42-.55,1.91a14.55,14.55,0,0,1,1.4,1.11l-.54.63c-.43-.41-.82-.76-1.18-1A6.11,6.11,0,0,1,31.63,8.29ZM28.5,4.17a1.71,1.71,0,0,0-.84.94.53.53,0,0,0,.06.39.45.45,0,0,0,.3.19.74.74,0,0,0,.67-.25Q29,5.17,30,4A1.84,1.84,0,0,0,28.5,4.17Zm16,7.18a1.9,1.9,0,0,0-1.92-.24,11.18,11.18,0,0,0-1.74.72l-.34-.9a63.43,63.43,0,0,0,7.18-2.58l.31.88c0,.24-.08.29-.28.14-.89.22-2.05.59-3.47,1.1a3,3,0,0,1,1,.55,1,1,0,0,1,.35.66,1.73,1.73,0,0,1-.45,1l-.77,1.19a.53.53,0,0,0,.12.76,1.09,1.09,0,0,0,.82.29A5.48,5.48,0,0,0,48,13.59l.33.85a5.94,5.94,0,0,1-2.7,1.29,2.29,2.29,0,0,1-1.73-.56,1.23,1.23,0,0,1-.17-1.79L44.55,12A.47.47,0,0,0,44.46,11.35ZM10.62,36c0-4.35,1.42-5.74,1.42-9.37,0-1.26-.51-5.31-1.65-7.09a26.64,26.64,0,0,0-2.71-3.44c2.27.74,6.58,2.23,9.45,4.63a11,11,0,0,1,8.62-4.5A10.52,10.52,0,0,1,36.27,26.76a2.47,2.47,0,0,1-.08.87,18.21,18.21,0,0,1,3.12-.22,26.18,26.18,0,0,1,7.84,1.48,19.53,19.53,0,0,0-8.06,3.42A9.67,9.67,0,0,0,36,37a15.87,15.87,0,0,1-4.11,6.94,11.42,11.42,0,0,1-8,3,7.76,7.76,0,0,1-1.78-.09,5,5,0,0,0,0,1.11A6.79,6.79,0,0,1,27,54.66a7.17,7.17,0,0,1-14.33,0,7.31,7.31,0,0,1,3.63-6.19,12.6,12.6,0,0,1,.05-3.08A10.55,10.55,0,0,1,10.62,36Zm9.54,8.56a11.26,11.26,0,0,0,3.64.61c6.2.09,9-5,10.08-9.17a11.33,11.33,0,0,1,5.38-6.28c-7.36,0-12.56,2.15-16.85,6.56-2.82,2.91-4,7.57-4,10.49,0,.95.06,2,.15,2.88a5,5,0,0,0-3.92,4.87,5.23,5.23,0,0,0,5.15,5.2,5.24,5.24,0,0,0,5.07-5.15,5.08,5.08,0,0,0-4.85-5A20.26,20.26,0,0,1,20.16,44.57Zm-3.42-2c.4-2.12,2.15-6.45,4.33-8.45-.11-4-.83-5.77-2.47-8.23A15.27,15.27,0,0,0,13.1,21a21.56,21.56,0,0,1,1,6.28c0,3.3-1.43,4.9-1.43,8.45A7.86,7.86,0,0,0,16.74,42.62ZM23.3,32.23A24,24,0,0,1,33.62,28a8,8,0,0,0-7.13-9.22c-1.07,0-1.81.53-1.81,1,0,1.12,2.72,1.54,3.23,1.53a9,9,0,0,1-2.56.36c-.83,0-3.19-.23-3.19-1.54,0-.51.12-.46.2-.7a9.31,9.31,0,0,0-3.47,3A17.92,17.92,0,0,1,23.3,32.23Zm.19-9.29a1.34,1.34,0,1,0,1.34,1.33A1.33,1.33,0,0,0,23.49,22.94Zm6.59-1.53a1.34,1.34,0,1,0,1.34,1.34A1.34,1.34,0,0,0,30.08,21.41Zm-4.75,4.31-.66.16a3.82,3.82,0,0,0,2.78,1.68,2.84,2.84,0,0,0,2.47-2.84l-.68.08c-.24,1-1.06,2-1.89,2A2.74,2.74,0,0,1,25.33,25.72ZM38.45,68.55l-2.28,4L35.68,68l-4.49-.87,4.25-1.9-.52-4.57L38,64.08l4.25-1.9L39.88,66.1l3,3.39Zm-1.75,1.2L38,67.58l2.44.49-1.61-1.92,1.29-2.1-2.35,1-1.67-1.78.2,2.43L34,66.8l2.42.44ZM23.58,71.66l-3.74,2.62L21.31,70,17.6,67.28l4.66.08L23.72,63,25,67.4l4.66.08L25.91,70l1.32,4.36ZM21.49,72l2.11-1.41,2,1.48L25,69.65,27,68.29l-2.57,0-.77-2.32-.84,2.29-2.57,0,2,1.42ZM8.81,68.41l-4.47.89,3.07-3.36L5.1,62l4.23,1.93,3.09-3.41-.56,4.57L16.1,67l-4.5.83-.54,4.52Zm-2.05-.53,2.5-.45,1.25,2.17.37-2.48,2.43-.42L11,65.63l.23-2.43L9.51,65,7.17,63.89,8.44,66Z"/></g></g></svg>