<svg xmlns="http://www.w3.org/2000/svg" viewBox="0 0 219.28 37.23"><defs><style>.cls-1{fill:#14294f;}.cls-2{fill:#5fc1ea;}.cls-3{fill:#fff;}</style></defs><title>アセット 17</title><g id="レイヤー_2" data-name="レイヤー 2"><g id="contents"><path class="cls-1" d="M123.59,30.09l.82.55c4.46-3.18,7.4-8.44,7.4-16.6l-2.47-.28C129.34,21.16,128.14,26.23,123.59,30.09Z"/><path class="cls-1" d="M55.43,18.7l-2.2-.27V31.32c1.21,0,2.2-.44,2.2-1.65V26.38h7.13a1.09,1.09,0,0,0,1.09-1.1H55.43V23.09h7.13A1.09,1.09,0,0,0,63.65,22H55.43V19.8h9.32V31.32c1.21,0,2.19-.44,2.19-1.65V18.43l-2.19.27Z"/><path class="cls-1" d="M61.18,13.22h5.76a1.1,1.1,0,0,0,1.1-1.1H61.18V9.92h7.41a1.09,1.09,0,0,0,1.1-1.09H61.18V7.18L59,6.63v2.2h-8.5V9.92H59v2.2H52.13v1.1H59v2.19h-9.6v1.1h20.3a1.09,1.09,0,0,0,1.09-1.1h-9.6Z"/><path class="cls-1" d="M92,26.93H86V7.73l-2.19-.55V26.93h-6V13.76l-2.19-.54V30.77c1.21,0,2.19-.44,2.19-1.65V28H92v2.74c1.22,0,2.2-.44,2.2-1.65V13.76L92,13.22Z"/><path class="cls-1" d="M184.45,12.94h-7.39V8.68l-2.2-.55v4.81h-7.39V14h7.39v15.9h0c1.22,0,2.2-.43,2.2-1.65V14h6.29A1.1,1.1,0,0,0,184.45,12.94Z"/><path class="cls-1" d="M188.73,19h13.74a1.37,1.37,0,0,0,1.37-1.37H188.73Z"/><path class="cls-1" d="M137.59,9.93H122.17V11h15.37a21.45,21.45,0,0,1-1.78,7.53l1,.27a25,25,0,0,0,3.33-9.17l-2.47.28Z"/><path class="cls-1" d="M159.23,8.41,157,7.86v5.63h-7.12v-4L147.73,9v4.53h-3.6v1.1h3.6v7.88c1.21,0,2.19-.16,2.19-1.37V14.59H157V16.3c0,6.38-1,10.38-5.12,13.71l.74.63c5-3.7,6.57-7.49,6.57-13.78V14.59h2.51a1.1,1.1,0,0,0,1.1-1.1h-3.61Z"/><path class="cls-1" d="M106.27,8l-2.46-.55c-.47,5.39-1.63,10.59-4.31,14.07l.89.39a20.77,20.77,0,0,0,4.41-7.57h6.8c-.06,7.1-1.31,12-5.74,15.78l.82.55c4.27-3,7.26-8,7.38-16.33h3.27a1.09,1.09,0,0,0,1.09-1.09H105.17A24.66,24.66,0,0,0,106.27,8Z"/><path class="cls-1" d="M166.86,26.14l1.63,1.79c1.8-2.47,2.48-6.48,2.47-9.75l-1.08-.08C169.41,22.1,168.38,24.37,166.86,26.14Z"/><path class="cls-1" d="M180.88,18.18a38.49,38.49,0,0,1,1.72,10l2.31-.68a30.34,30.34,0,0,0-3.1-9.57Z"/><path class="cls-1" d="M210.68,16.57V8.68l-2.19-.55V29.94h0c1.21,0,2.19-.43,2.19-1.65V17.6a40.94,40.94,0,0,1,7.54,4.22l1.06-2.35A38.23,38.23,0,0,0,210.68,16.57Z"/><path class="cls-1" d="M183.26,6.06a2.59,2.59,0,1,0,2.58,2.59A2.59,2.59,0,0,0,183.26,6.06Zm0,4.29a1.63,1.63,0,0,1-1.55-1.7,1.56,1.56,0,1,1,3.1,0A1.63,1.63,0,0,1,183.26,10.35Z"/><path class="cls-1" d="M3.35,21.4a1.54,1.54,0,0,1-.6.71l-.31-.59a1.07,1.07,0,0,0,.44-1,1,1,0,0,0-.42-.73,1.16,1.16,0,0,0-.84-.21A1.15,1.15,0,0,0,.86,20a1,1,0,0,0-.22.8,1.07,1.07,0,0,0,.66.88l-.15.64a1.6,1.6,0,0,1-.77-.54,1.72,1.72,0,0,1-.36-.9,1.65,1.65,0,0,1,.34-1.3,1.71,1.71,0,0,1,1.18-.65,1.69,1.69,0,0,1,1.3.34,1.69,1.69,0,0,1,.66,1.18A1.77,1.77,0,0,1,3.35,21.4Z"/><path class="cls-1" d="M.75,24.19l3.66,0,.2.48L2.07,27.33l-.26-.62.48-.49L1.7,24.81H1Zm2.91.62H2.34l.4,1Z"/><path class="cls-1" d="M6.76,28.2A1.16,1.16,0,0,1,7,29a1,1,0,0,1-.4.75,1,1,0,0,1-1.16.1L4.93,31.3l-.45-.56L5,29.45l-.49-.61-.93.73-.4-.5L5.79,27Zm-1-.34L5,28.47l.56.71a.48.48,0,0,0,.69.08.47.47,0,0,0,.08-.69Z"/><path class="cls-1" d="M10.47,31.56l-.36.48L8.65,30.93l-.46.61,1.25,1L9.08,33,7.83,32l-.49.64,1.48,1.12-.36.48-2-1.51,2-2.68Z"/><path class="cls-1" d="M17.34,34.72a.55.55,0,0,0-.5-.38c-.28,0-.53.09-.55.29s.07.24.27.35a4.45,4.45,0,0,0,.53.24,1.79,1.79,0,0,1,.47.25.86.86,0,0,1,.22.2.91.91,0,0,1,.15.63.94.94,0,0,1-.44.73,1.28,1.28,0,0,1-.92.18,1.5,1.5,0,0,1-.83-.32,1.11,1.11,0,0,1-.38-.64l.66-.11a.65.65,0,0,0,.62.46c.34,0,.62-.09.64-.32a.3.3,0,0,0-.09-.24.53.53,0,0,0-.13-.1,2,2,0,0,0-.25-.13,6.75,6.75,0,0,1-.77-.38.84.84,0,0,1-.39-.83.89.89,0,0,1,.4-.69,1.19,1.19,0,0,1,.85-.18,1.33,1.33,0,0,1,.74.3,1,1,0,0,1,.36.58Z"/><path class="cls-1" d="M21.73,33.65l.63-.09.28,2a1.41,1.41,0,0,1-1.26,1.61,1.45,1.45,0,0,1-1.1-.26,1.37,1.37,0,0,1-.55-.94l-.27-2,.63-.08.28,2a.77.77,0,0,0,.31.55.75.75,0,0,0,.62.15.79.79,0,0,0,.55-.31.83.83,0,0,0,.15-.62Z"/><path class="cls-1" d="M25.66,36l-.59.25-1.33-3.08,1.38-.6a1.17,1.17,0,0,1,.88,0,1.06,1.06,0,0,1,.62,1.42,1.15,1.15,0,0,1-.64.62l-.79.34Zm-1.1-2.54.39.91.8-.35a.48.48,0,0,0,.25-.65.47.47,0,0,0-.64-.25Z"/><path class="cls-1" d="M29.82,33.7l-.51.4-2.07-2.65,1.19-.93a1.17,1.17,0,0,1,.85-.26,1,1,0,0,1,.74.4,1,1,0,0,1,.21.82,1.16,1.16,0,0,1-.46.75l-.68.54Zm-1.7-2.18.6.78.68-.54a.49.49,0,1,0-.6-.77Z"/><path class="cls-1" d="M32.32,26.86a1.63,1.63,0,0,1,1.3.33,1.71,1.71,0,0,1,.71,1.15,1.68,1.68,0,0,1-.34,1.3,1.71,1.71,0,0,1-1.14.72A1.74,1.74,0,0,1,31.54,30a1.7,1.7,0,0,1-.37-2.44A1.64,1.64,0,0,1,32.32,26.86Zm.45,2.84a1,1,0,0,0,.72-.43,1,1,0,0,0,.2-.81,1.21,1.21,0,0,0-1.3-1,1,1,0,0,0-.72.43,1.05,1.05,0,0,0-.2.82,1.15,1.15,0,0,0,.47.72A1.12,1.12,0,0,0,32.77,29.7Z"/><path class="cls-1" d="M33.37,23.55a1.21,1.21,0,0,1,.58-.67,1,1,0,0,1,.84-.05,1.07,1.07,0,0,1,.7.94L37,23.49l-.24.68-1.36.25-.27.74,1.12.4-.22.61L32.84,25Zm.25,1.06.92.34.32-.86a.49.49,0,1,0-.93-.33Z"/><path class="cls-1" d="M34.62,21.41,34,21.36l.27-2.87.59.06-.1,1.11,2.75.26-.06.65-2.75-.26Z"/><path class="cls-1" d="M6.85,8.17l-1-3.51.41-.33L9.47,6,9,6.42,8.34,6.1l-1.17,1,.2.65Zm-.25-3L7,6.46l.78-.65Z"/><path class="cls-1" d="M12,1.55a1.72,1.72,0,0,1,1,1,1.76,1.76,0,0,1,0,1.35,1.74,1.74,0,0,1-1,1,1.76,1.76,0,0,1-1.35,0,1.72,1.72,0,0,1-.95-1,1.65,1.65,0,0,1,0-1.34,1.69,1.69,0,0,1,1-1A1.67,1.67,0,0,1,12,1.55ZM11,4.24a1,1,0,0,0,.83,0,1,1,0,0,0,.59-.6,1.12,1.12,0,0,0,0-.86,1.12,1.12,0,0,0-.61-.62,1,1,0,0,0-.84,0,1.06,1.06,0,0,0-.58.61,1.12,1.12,0,0,0,0,.86A1.08,1.08,0,0,0,11,4.24Z"/><path class="cls-1" d="M14.11.47l.73-.11L15.89,1.6,16.55.11,17.29,0l-1,2.14.2,1.37-.64.1-.2-1.36Z"/><path class="cls-1" d="M18.49,3.29,20.2.06l.52,0,1.17,3.47-.68-.06L21,2.86l-1.52-.12-.31.61ZM20.39,1l-.61,1.17,1,.08Z"/><path class="cls-1" d="M23.24,3.84,24.44.71l.61.23.36,2.41L27.29,1.8l.6.23L26.68,5.17l-.6-.23.77-2L25.3,4.23l-.4-.15-.29-2-.77,2Z"/><path class="cls-1" d="M27.86,5.86l3.23-1.72.41.33L30.51,8,30,7.57l.19-.66L29,6l-.61.33ZM30.72,5l-1.17.63.8.64Z"/><path class="cls-2" d="M1.43,10.91a1.73,1.73,0,0,1,1.34-.06,1.71,1.71,0,0,1,1,.91,1.73,1.73,0,0,1,.06,1.34,1.69,1.69,0,0,1-.91,1,1.65,1.65,0,0,1-1.34.06,1.68,1.68,0,0,1-1-.91,1.73,1.73,0,0,1-.06-1.34A1.69,1.69,0,0,1,1.43,10.91Z"/><path class="cls-2" d="M36.87,12.94a1.67,1.67,0,0,1-1,.93,1.65,1.65,0,0,1-1.34,0,1.69,1.69,0,0,1-.93-1,1.73,1.73,0,0,1,0-1.34,1.71,1.71,0,0,1,1-.93,1.69,1.69,0,0,1,1.34,0,1.74,1.74,0,0,1,.9,2.3Z"/><path class="cls-2" d="M30.65,23.29,20.9,6.46a2.52,2.52,0,0,0-2.13-1.41,2.52,2.52,0,0,0-2.14,1.41L6.89,23.29a2.44,2.44,0,0,0-.15,2.51A2.65,2.65,0,0,0,9.16,27H28.37a2.67,2.67,0,0,0,2.42-1.18A2.46,2.46,0,0,0,30.65,23.29Z"/><path class="cls-3" d="M20.83,17.61V8.14l-.72-1.23a1.42,1.42,0,0,0-2.69,0l-.77,1.32v9.38H11.22L8.76,21.86h7.89v4.22h4.18V21.86h7.94l-2.46-4.25Z"/></g></g></svg>