<svg xmlns="http://www.w3.org/2000/svg" viewBox="0 0 246.97 51.21"><defs><style>.cls-1{fill:#fff;}.cls-2{fill:#5fc1ea;}</style></defs><title>アセット 15</title><g id="レイヤー_2" data-name="レイヤー 2"><g id="contents"><path class="cls-1" d="M144.32,46.09l.88.58c4.79-3.4,7.94-9.05,7.94-17.8l-2.65-.3C150.49,36.5,149.2,42,144.32,46.09Z"/><path class="cls-1" d="M71.79,33.87l-2.35-.3V47.4c1.3,0,2.35-.46,2.35-1.76V42.11h7.65a1.18,1.18,0,0,0,1.18-1.18H71.79V38.58h7.65a1.18,1.18,0,0,0,1.18-1.18H71.79V35.05h10V47.4c1.3,0,2.36-.46,2.36-1.76V33.57l-2.36.3Z"/><path class="cls-1" d="M78,28h6.18a1.17,1.17,0,0,0,1.18-1.17H78V24.45h7.94a1.17,1.17,0,0,0,1.18-1.17H78V21.51l-2.35-.59v2.36H66.5v1.17h9.12v2.36H68.26V28h7.36v2.36H65.32v1.18H87.09a1.18,1.18,0,0,0,1.18-1.18H78Z"/><path class="cls-1" d="M110.42,42.69H104V22.1l-2.36-.59V42.69H95.12V28.57L92.77,28V46.81c1.3,0,2.35-.46,2.35-1.76V43.87h15.3v2.94c1.3,0,2.35-.46,2.35-1.76V28.57L110.42,28Z"/><path class="cls-1" d="M209.61,27.69h-7.93V23.12l-2.36-.59v5.16h-7.93v1.18h7.93V45.92h0c1.3,0,2.36-.46,2.36-1.76V28.87h6.75A1.18,1.18,0,0,0,209.61,27.69Z"/><path class="cls-1" d="M214.2,34.21h14.73a1.47,1.47,0,0,0,1.48-1.47H214.2Z"/><path class="cls-1" d="M159.34,24.46H142.8v1.17h16.48a23,23,0,0,1-1.9,8.07l1,.3A26.85,26.85,0,0,0,162,24.16l-2.64.3Z"/><path class="cls-1" d="M182.55,22.83l-2.35-.59v6h-7.63V24l-2.35-.58v4.86h-3.87v1.18h3.87v8.45c1.3,0,2.35-.17,2.35-1.47v-7h7.63V31.3c0,6.84-1.06,11.13-5.49,14.7l.8.67c5.31-4,7-8,7-14.77V29.46h2.69a1.18,1.18,0,0,0,1.18-1.18h-3.87Z"/><path class="cls-1" d="M125.75,22.36l-2.65-.59c-.5,5.78-1.74,11.36-4.62,15.09l1,.42a22.32,22.32,0,0,0,4.74-8.12h7.29c-.06,7.61-1.4,12.89-6.16,16.93l.89.58c4.58-3.24,7.78-8.58,7.91-17.51h3.5A1.18,1.18,0,0,0,138.78,28H124.57A27.06,27.06,0,0,0,125.75,22.36Z"/><path class="cls-1" d="M190.74,41.85l1.75,1.92c1.93-2.65,2.66-7,2.65-10.46L194,33.22C193.47,37.51,192.37,40,190.74,41.85Z"/><path class="cls-1" d="M205.77,33.32A41.11,41.11,0,0,1,207.63,44l2.47-.74A32.25,32.25,0,0,0,206.77,33Z"/><path class="cls-1" d="M237.75,31.58V23.12l-2.36-.59V45.92h0c1.3,0,2.36-.46,2.36-1.76V32.68a45.12,45.12,0,0,1,8.08,4.53L247,34.69A41.89,41.89,0,0,0,237.75,31.58Z"/><path class="cls-1" d="M208.33,20.31a2.78,2.78,0,1,0,2.77,2.78A2.78,2.78,0,0,0,208.33,20.31Zm0,4.6A1.83,1.83,0,1,1,210,23.09,1.75,1.75,0,0,1,208.33,24.91Z"/><path class="cls-1" d="M98.29,9.38H93v.56h4.76A.57.57,0,0,0,98.29,9.38Z"/><path class="cls-1" d="M111,9.78h1.53a.57.57,0,0,0,.57-.56H111V4.66l-1.13-.28V9.22h-2.1v.56h2.1v5.84H107v.57h6.33a.57.57,0,0,0,.56-.57H111Z"/><path class="cls-1" d="M91.12,12.17h8.45a.57.57,0,0,0,.56-.57h-9Z"/><path class="cls-1" d="M68.9,9.62V7.68h.73a.56.56,0,0,0,.56-.56H68.9V4.66l-1.12-.28V7.12H65.94v.56H67.6A16.75,16.75,0,0,1,65.74,13l.47.19a12.2,12.2,0,0,0,1.57-2.63V17c.62,0,1.12-.22,1.12-.84v-5.6a7.4,7.4,0,0,1,.75,1.82l.69-1.08A6.42,6.42,0,0,0,68.9,9.62Z"/><path class="cls-1" d="M74.25,10.7H76a.56.56,0,0,0,.56-.56H74.2v-3h1.51a.56.56,0,0,0,.56-.56H74.2V4.66l-1.13-.28V6.57H71.91c.15-.38.3-.78.46-1.22L71.2,5a19.06,19.06,0,0,1-1,4.09l.39.19a14.7,14.7,0,0,0,1.12-2.16h1.4v3H70.46v.56h2.06a11.91,11.91,0,0,1-2.64,4.63l.27.29a12.48,12.48,0,0,0,2.92-3.34V17c.63,0,1.13-.22,1.13-.84V12a9.58,9.58,0,0,0,2.09,4.11L77,14.82A11.57,11.57,0,0,1,74.25,10.7Z"/><path class="cls-1" d="M81.9,14.65v-4h1a.57.57,0,0,0,.57-.56H79.22v.56h1.55v4.08c-.67.08-1.38.14-2.12.19l.07,1.12a31.82,31.82,0,0,0,6.45-1.44L85,14.14C84.14,14.31,83.08,14.5,81.9,14.65Z"/><path class="cls-1" d="M88.19,15.4c-1.76-1.8-2.77-4.53-3.19-7.72h2.78a.57.57,0,0,0,.57-.56H84.93c-.09-.77-.14-1.56-.16-2.37l-1.11-.38c0,1,.06,1.9.14,2.75H78.55v.56h5.31c.62,5.25,2.49,7.72,3.92,9.15a5.63,5.63,0,0,0,1.13-1.89l-.25-.2A4.49,4.49,0,0,1,88.19,15.4Z"/><path class="cls-1" d="M87.71,6.61l.52-1.08a22.71,22.71,0,0,0-2.36-1L85.73,5A11.19,11.19,0,0,1,87.71,6.61Z"/><path class="cls-1" d="M95.93,5.19c.06-.1.12-.18.19-.28L95,4.53A14,14,0,0,1,90,9.71l.23.43A12.66,12.66,0,0,0,95.65,5.6a14.64,14.64,0,0,0,4.61,4.75l1-.87A15.6,15.6,0,0,1,95.93,5.19Z"/><path class="cls-1" d="M97.65,13.33a8.94,8.94,0,0,1,.7,1.54c-1.49.17-3.13.29-4.86.35a8.37,8.37,0,0,0,1.19-2.46H93.39a10.25,10.25,0,0,1-.63,2.48H91.2l.18,1.17a41.49,41.49,0,0,0,7.14-1c.14.5.26,1,.38,1.61l1.19-.33a10.55,10.55,0,0,0-2-3.63Z"/><path class="cls-1" d="M107.88,12.13a8.36,8.36,0,0,0-2.1-1.69,9.24,9.24,0,0,0,1.48-3.32h-1.68V4.66l-1.13-.28V7.12h-1.68v.56h3.09a9.64,9.64,0,0,1-3.45,5.08l.3.35a8.79,8.79,0,0,0,1.74-1.2V17c.63,0,1.13-.22,1.13-.84V11a10.06,10.06,0,0,1,1.72,2.34Z"/><path class="cls-1" d="M4.61,29.44a2.18,2.18,0,0,1-.83,1l-.43-.81A1.44,1.44,0,0,0,4,28.21a1.41,1.41,0,0,0-.57-1,1.55,1.55,0,0,0-1.16-.28,1.53,1.53,0,0,0-1,.55,1.42,1.42,0,0,0-.31,1.11,1.47,1.47,0,0,0,.92,1.2l-.21.89a2.23,2.23,0,0,1-1-.74A2.45,2.45,0,0,1,0,28.7a2.4,2.4,0,0,1,.47-1.8A2.36,2.36,0,0,1,2.12,26a2.36,2.36,0,0,1,2.69,2.1A2.39,2.39,0,0,1,4.61,29.44Z"/><path class="cls-1" d="M1,33.28l5,0,.28.66L2.85,37.6l-.36-.86.66-.68-.81-1.92H1.39Zm4,.85H3.22l.55,1.29Z"/><path class="cls-1" d="M9.3,38.79A1.65,1.65,0,0,1,9.67,40a1.38,1.38,0,0,1-.55,1,1.44,1.44,0,0,1-1.6.15l-.74,1.94-.61-.78.67-1.77-.66-.84-1.28,1L4.35,40,8,37.12Zm-1.42-.47-1.06.84.78,1a.65.65,0,0,0,1,.11.66.66,0,0,0,.11-1Z"/><path class="cls-1" d="M14.4,43.42l-.49.65-2-1.52-.64.84L13,44.69l-.49.66-1.72-1.3-.67.88,2,1.54-.5.66L8.9,45.05l2.78-3.69Z"/><path class="cls-1" d="M23.85,47.77a.77.77,0,0,0-.69-.54c-.39,0-.72.14-.75.41s.1.33.37.48c.12.07.36.17.72.33a2.44,2.44,0,0,1,.66.34,1.11,1.11,0,0,1,.29.28,1.26,1.26,0,0,1,.22.87,1.35,1.35,0,0,1-.61,1,1.82,1.82,0,0,1-1.27.25,2.09,2.09,0,0,1-1.13-.45,1.46,1.46,0,0,1-.54-.87l.91-.16a.92.92,0,0,0,.86.64c.46,0,.85-.12.89-.44a.49.49,0,0,0-.13-.34.76.76,0,0,0-.18-.13,1.92,1.92,0,0,0-.35-.18,7.64,7.64,0,0,1-1.06-.53,1.15,1.15,0,0,1-.54-1.13,1.28,1.28,0,0,1,.55-1,1.72,1.72,0,0,1,1.18-.26,1.88,1.88,0,0,1,1,.42,1.42,1.42,0,0,1,.5.8Z"/><path class="cls-1" d="M29.89,46.29l.87-.12.38,2.74a1.86,1.86,0,0,1-.38,1.46,2.14,2.14,0,0,1-2.86.39,1.89,1.89,0,0,1-.76-1.3l-.38-2.74.88-.12L28,49.34a1.11,1.11,0,0,0,.43.76,1,1,0,0,0,.84.21,1.09,1.09,0,0,0,.76-.43,1.07,1.07,0,0,0,.21-.85Z"/><path class="cls-1" d="M35.3,49.49l-.81.35L32.65,45.6l1.9-.82a1.62,1.62,0,0,1,1.22-.06,1.42,1.42,0,0,1,.84.79,1.37,1.37,0,0,1,0,1.17,1.56,1.56,0,0,1-.87.84L34.65,48ZM33.79,46l.54,1.25,1.09-.48a.65.65,0,0,0,.34-.89.65.65,0,0,0-.88-.35Z"/><path class="cls-1" d="M41,46.36l-.7.54-2.84-3.64L39.11,42a1.59,1.59,0,0,1,1.16-.36,1.36,1.36,0,0,1,1,.56,1.38,1.38,0,0,1,.29,1.12,1.56,1.56,0,0,1-.63,1l-.94.73Zm-2.34-3,.83,1.07.94-.73a.67.67,0,0,0,.11-1,.65.65,0,0,0-.94-.11Z"/><path class="cls-1" d="M44.46,36.94a2.34,2.34,0,0,1,1.79.46,2.44,2.44,0,0,1-1.07,4.36,2.35,2.35,0,0,1-1.79-.47,2.35,2.35,0,0,1-.51-3.37A2.35,2.35,0,0,1,44.46,36.94Zm.62,3.92a1.4,1.4,0,0,0,1-.59,1.43,1.43,0,0,0,.27-1.12,1.53,1.53,0,0,0-.64-1,1.51,1.51,0,0,0-1.14-.32,1.48,1.48,0,0,0-1,.59,1.39,1.39,0,0,0-.26,1.13,1.67,1.67,0,0,0,1.78,1.31Z"/><path class="cls-1" d="M45.91,32.4a1.61,1.61,0,0,1,.79-.92,1.35,1.35,0,0,1,1.16-.07,1.46,1.46,0,0,1,1,1.29l2-.38-.34.92-1.86.35-.37,1,1.53.56-.3.84-4.35-1.59Zm.34,1.46,1.27.46L48,33.14a.65.65,0,0,0-.41-.86.64.64,0,0,0-.86.4Z"/><path class="cls-1" d="M47.63,29.46l-.82-.08.37-3.94.82.08L47.85,27l3.79.36-.08.89-3.79-.36Z"/><path class="cls-1" d="M9.43,11.23,8,6.41,8.55,6,13,8.24l-.72.59-.83-.43L9.87,9.73l.27.91ZM9.08,7.15l.53,1.74L10.69,8Z"/><path class="cls-1" d="M16.51,2.14a2.29,2.29,0,0,1,1.31,1.3,2.36,2.36,0,0,1-1.27,3.17,2.34,2.34,0,0,1-3.17-1.27,2.36,2.36,0,0,1,1.27-3.16A2.28,2.28,0,0,1,16.51,2.14ZM15.06,5.83a1.4,1.4,0,0,0,1.15,0A1.38,1.38,0,0,0,17,5a1.5,1.5,0,0,0,0-1.19A1.51,1.51,0,0,0,16.14,3,1.36,1.36,0,0,0,15,3a1.42,1.42,0,0,0-.8.83,1.54,1.54,0,0,0,0,1.19A1.54,1.54,0,0,0,15.06,5.83Z"/><path class="cls-1" d="M19.41.65l1-.15,1.43,1.71L22.77.15l1-.15L22.42,2.94l.28,1.9L21.82,5l-.28-1.87Z"/><path class="cls-1" d="M25.44,4.53,27.79.08l.71.06,1.61,4.77-.93-.08-.29-.9L26.8,3.77l-.43.84Zm2.61-3.16L27.21,3l1.4.12Z"/><path class="cls-1" d="M32,5.29,33.63,1l.82.32L35,4.61l2.59-2.13.83.32L36.71,7.11l-.83-.32,1.06-2.74L34.8,5.82l-.55-.21-.4-2.75L32.79,5.61Z"/><path class="cls-1" d="M38.32,8.06,42.76,5.7l.56.45L42,11l-.73-.59.27-.9L39.88,8.19l-.83.45Zm3.94-1.15-1.61.86,1.1.89Z"/><path class="cls-2" d="M2,15a2.31,2.31,0,0,1,1.84-.08,2.33,2.33,0,0,1,1.36,1.25A2.31,2.31,0,0,1,5.25,18,2.34,2.34,0,0,1,4,19.37a2.31,2.31,0,0,1-1.84.08A2.33,2.33,0,0,1,.8,18.2a2.31,2.31,0,0,1-.08-1.84A2.34,2.34,0,0,1,2,15Z"/><path class="cls-2" d="M50.71,17.81A2.41,2.41,0,0,1,47.54,19a2.34,2.34,0,0,1-1.28-1.32,2.42,2.42,0,0,1,1.38-3.13,2.4,2.4,0,0,1,3.07,3.22Z"/><path class="cls-2" d="M42.16,32,28.75,8.88a3.5,3.5,0,0,0-2.94-1.94,3.47,3.47,0,0,0-2.93,1.94L9.47,32a3.35,3.35,0,0,0-.2,3.45,3.68,3.68,0,0,0,3.33,1.63H39a3.68,3.68,0,0,0,3.33-1.63A3.4,3.4,0,0,0,42.16,32Z"/><path class="cls-1" d="M28.65,24.22v-13l-1-1.69c-1-1.76-2.69-1.76-3.71,0l-1.05,1.81v12.9H15.44l-3.39,5.85H22.91v5.8h5.74v-5.8H39.58l-3.39-5.85Z"/></g></g></svg>